<svg xmlns="http://www.w3.org/2000/svg" viewBox="0 0 42.78 44.47"><defs><style>.cls-1{fill:#00403d;}.cls-2{fill:#c9d010;}</style></defs><g id="Capa_2" data-name="Capa 2"><g id="Capa_1-2" data-name="Capa 1"><path class="cls-1" d="M37.22,17.45a12,12,0,0,1,0,6.81,21.94,21.94,0,0,1-3.66,7.15,24.64,24.64,0,0,1-5.88,5.87,11.07,11.07,0,0,1-6.52,2q-4.41,0-9.64-3.87a18.87,18.87,0,0,1-3.81-3.71,12.49,12.49,0,0,1-2.17-4.4,13.15,13.15,0,0,1-.12-6.65,20.3,20.3,0,0,1,3.7-7.37A24,24,0,0,1,15,7.41a13.08,13.08,0,0,1,5.74-2.12,11.3,11.3,0,0,1,5.17.87,24.27,24.27,0,0,1,5.12,3q5,3.69,6.24,8.27ZM27.27,1.16A15,15,0,0,0,20.5,0,17,17,0,0,0,13,2.8a30.74,30.74,0,0,0-7.66,7.64A26.61,26.61,0,0,0,.49,20.08,17.18,17.18,0,0,0,.64,28.8a16.55,16.55,0,0,0,2.84,5.75,24.82,24.82,0,0,0,5,4.87q6.82,5.05,12.62,5a14.46,14.46,0,0,0,8.54-2.59,32.54,32.54,0,0,0,7.7-7.7,29,29,0,0,0,4.79-9.35,15.78,15.78,0,0,0,0-8.93q-1.7-6-8.17-10.85A31.92,31.92,0,0,0,27.27,1.16Z"/><path class="cls-2" d="M26.86,20.61a4.19,4.19,0,0,1,0,2.38,7.68,7.68,0,0,1-1.27,2.48,8.49,8.49,0,0,1-2.05,2.05,3.8,3.8,0,0,1-2.24.69,5.81,5.81,0,0,1-3.37-1.35,6.5,6.5,0,0,1-1.33-1.29,4.58,4.58,0,0,1-.8-3.85,7.11,7.11,0,0,1,1.29-2.56,8.16,8.16,0,0,1,2-2,4.66,4.66,0,0,1,2-.74,4.12,4.12,0,0,1,1.8.3,8.82,8.82,0,0,1,1.78,1A5.48,5.48,0,0,1,26.86,20.61Zm-5.93-9.24a8.47,8.47,0,0,0-3.7,1.36,15.05,15.05,0,0,0-3.76,3.75,13.22,13.22,0,0,0-2.37,4.74,8.5,8.5,0,0,0,.07,4.28,8.24,8.24,0,0,0,1.4,2.81A12.07,12.07,0,0,0,15,30.7a10.59,10.59,0,0,0,6.18,2.48,7.07,7.07,0,0,0,4.19-1.27,16,16,0,0,0,3.78-3.78,14.17,14.17,0,0,0,2.35-4.59,7.63,7.63,0,0,0,0-4.39,10.21,10.21,0,0,0-4-5.32,15.47,15.47,0,0,0-3.29-1.92A7.27,7.27,0,0,0,20.93,11.37Z"/></g></g></svg>