<svg xmlns="http://www.w3.org/2000/svg" viewBox="0 0 337.12 429.16"><defs><style>.cls-1{fill:#00403d;}.cls-2{fill:#c9d00e;}</style></defs><g id="Capa_2" data-name="Capa 2"><g id="Capa_1-2" data-name="Capa 1"><path class="cls-1" d="M189.63,291.45a60.61,60.61,0,0,1,0,34.74A112.4,112.4,0,0,1,171,362.59a126.51,126.51,0,0,1-30,29.93,56.36,56.36,0,0,1-33.22,10.07q-22.51,0-49.1-19.69A95.46,95.46,0,0,1,39.26,364a64.39,64.39,0,0,1-11-22.38,67,67,0,0,1-.6-33.91q4-17.6,18.83-37.54t29.73-29.79a66.14,66.14,0,0,1,29.25-10.81A57.89,57.89,0,0,1,131.77,234a123.51,123.51,0,0,1,26.07,15.17q25.35,18.8,31.79,42.12Zm-50.68-83a76,76,0,0,0-34.51-5.73,86.55,86.55,0,0,0-38.31,14.11q-19.2,12.26-39,38.92Q7.78,281.87,2.49,304.9a87.49,87.49,0,0,0,.77,44.38,84.48,84.48,0,0,0,14.48,29.33,124.9,124.9,0,0,0,25.47,24.78Q78,429.15,107.5,429.14A73.72,73.72,0,0,0,151,415.92a164.87,164.87,0,0,0,39.2-39.2,146.81,146.81,0,0,0,24.41-47.64,79.89,79.89,0,0,0,0-45.5Q206.06,252.93,173,228.3A162.78,162.78,0,0,0,139,208.47Z"/><path class="cls-2" d="M136.86,307.59a21.47,21.47,0,0,1,0,12.1,39.48,39.48,0,0,1-6.46,12.65A43.05,43.05,0,0,1,120,342.75a19.25,19.25,0,0,1-11.44,3.52,29.62,29.62,0,0,1-17.17-6.83,33,33,0,0,1-6.75-6.61A22.86,22.86,0,0,1,80.72,325a23.43,23.43,0,0,1-.2-11.79,36,36,0,0,1,6.56-13.07,41.14,41.14,0,0,1,10.35-10.33,22.83,22.83,0,0,1,10.22-3.75,20.38,20.38,0,0,1,9.16,1.51,43.84,43.84,0,0,1,9.07,5.3A27.86,27.86,0,0,1,136.86,307.59Zm-30.24-47.07a42.71,42.71,0,0,0-18.83,6.92,75.62,75.62,0,0,0-19.14,19.12,66.34,66.34,0,0,0-12.11,24.12,43.18,43.18,0,0,0,.38,21.8A41.34,41.34,0,0,0,64,346.79,61.62,61.62,0,0,0,76.52,359Q93.68,371.64,108,371.63a36.26,36.26,0,0,0,21.38-6.47,81.9,81.9,0,0,0,19.26-19.26,72.29,72.29,0,0,0,12-23.4,38.84,38.84,0,0,0,0-22.35c-2.87-10-9.56-19.09-20.41-27.13a78.45,78.45,0,0,0-16.79-9.76A36.75,36.75,0,0,0,106.62,260.52Z"/><path class="cls-1" d="M170.77,75.27a51.27,51.27,0,0,1,0,29.35A94.81,94.81,0,0,1,155,135.33a106.59,106.59,0,0,1-25.38,25.21,47.82,47.82,0,0,1-28.13,8.58q-19,0-41.44-16.77a81.32,81.32,0,0,1-16.36-16,54.73,54.73,0,0,1-9.3-18.94,56.76,56.76,0,0,1-.4-28.62,87.64,87.64,0,0,1,16-31.64,100.77,100.77,0,0,1,25.24-25A56.26,56.26,0,0,1,100,23a48.94,48.94,0,0,1,22.23,3.81,104.6,104.6,0,0,1,22,12.88q21.21,15.73,26.58,35.54ZM128.14,5.1a64.41,64.41,0,0,0-29.08-5A73.23,73.23,0,0,0,66.64,12Q50.43,22.28,33.57,44.73q-16.45,22-21,41.47a74.26,74.26,0,0,0,.54,37.51A71.64,71.64,0,0,0,25.3,148.52a106,106,0,0,0,21.46,21q29.3,21.9,54.36,22a62.31,62.31,0,0,0,36.8-11.05,139.38,139.38,0,0,0,33.25-33,124,124,0,0,0,20.72-40.2,67.13,67.13,0,0,0,.17-38.43q-7-26-35-46.84A137.72,137.72,0,0,0,128.14,5.1Z"/><path class="cls-2" d="M126.13,88.83a17.92,17.92,0,0,1,0,10.21,32.94,32.94,0,0,1-5.49,10.68,37.22,37.22,0,0,1-8.84,8.78,16.73,16.73,0,0,1-9.79,2.86,25.13,25.13,0,0,1-14.31-5.72A28.71,28.71,0,0,1,82,109.92a18.68,18.68,0,0,1-3.23-6.59,19.73,19.73,0,0,1-.15-10,30.19,30.19,0,0,1,5.73-11,34.76,34.76,0,0,1,8.78-8.58,19.7,19.7,0,0,1,8.59-3.15,17.3,17.3,0,0,1,7.72,1.31,36.22,36.22,0,0,1,7.67,4.5A23.42,23.42,0,0,1,126.13,88.83ZM100.69,49a35.82,35.82,0,0,0-15.91,5.72A64,64,0,0,0,68.53,70.77,56.12,56.12,0,0,0,58.26,91.15a36.39,36.39,0,0,0,.26,18.42,34.47,34.47,0,0,0,6,12.16A51.3,51.3,0,0,0,75,132.06q14.31,10.74,26.64,10.79a30.76,30.76,0,0,0,18.08-5.43,68.55,68.55,0,0,0,16.31-16.2,61.5,61.5,0,0,0,10.19-19.74,33.18,33.18,0,0,0,0-18.89q-3.47-12.77-17.17-22.89a67.32,67.32,0,0,0-14.14-8.3A31.33,31.33,0,0,0,100.69,49Z"/><path class="cls-1" d="M273.18,244.49a44,44,0,0,1-25,0,80.89,80.89,0,0,1-26.06-13.33,91.29,91.29,0,0,1-21.55-21.55,40.92,40.92,0,0,1-7.27-23.92q0-16.23,14.31-35.34a68.68,68.68,0,0,1,13.62-14,46.79,46.79,0,0,1,16.11-8,48.87,48.87,0,0,1,24.41-.42,74.93,74.93,0,0,1,27,13.56,85.21,85.21,0,0,1,21.38,21.43A47.71,47.71,0,0,1,317.91,184a41.78,41.78,0,0,1-3.18,19,89.61,89.61,0,0,1-10.93,18.77Q290.07,239.74,273.18,244.49ZM332.85,208A54.61,54.61,0,0,0,337,183.17a62.44,62.44,0,0,0-10.18-27.58,111.61,111.61,0,0,0-28-28.07,98,98,0,0,0-35.36-17.75,63.21,63.21,0,0,0-32,.58,60.76,60.76,0,0,0-21.09,10.41,90.63,90.63,0,0,0-17.85,18.32Q174,164.15,174,185.38a53.31,53.31,0,0,0,9.5,31.47,119.41,119.41,0,0,0,28.21,28.22A106.42,106.42,0,0,0,246,262.61a57.51,57.51,0,0,0,32.73,0q22.07-6.11,39.81-30A116.89,116.89,0,0,0,332.85,208Z"/><path class="cls-2" d="M261.51,206.49a15.64,15.64,0,0,1-8.58,0,28.46,28.46,0,0,1-9.1-4.66,32,32,0,0,1-7.5-7.5,14.39,14.39,0,0,1-2.52-8.33,21.19,21.19,0,0,1,4.92-12.3,23.58,23.58,0,0,1,4.75-4.87,16,16,0,0,1,5.73-2.86,16.86,16.86,0,0,1,8.58,0,25.79,25.79,0,0,1,9.39,4.7,30,30,0,0,1,7.44,7.46,16.86,16.86,0,0,1,2.71,7.33,14.54,14.54,0,0,1-1.11,6.61,31.07,31.07,0,0,1-3.81,6.52A19.93,19.93,0,0,1,261.51,206.49Zm33.88-21.77a30.67,30.67,0,0,0-5-13.54,55,55,0,0,0-13.76-13.79,48.25,48.25,0,0,0-17.37-8.59,31,31,0,0,0-15.68.26,30.44,30.44,0,0,0-10.36,5.12,43.45,43.45,0,0,0-8.79,9c-6.06,8.18-9.12,15.76-9.09,22.72A25.94,25.94,0,0,0,220,201.28a58.14,58.14,0,0,0,13.85,13.88,52.1,52.1,0,0,0,16.85,8.59,28.14,28.14,0,0,0,16.06,0A37,37,0,0,0,286.32,209a57.14,57.14,0,0,0,7-12.22A26.69,26.69,0,0,0,295.39,184.72Z"/></g></g></svg>