<svg xmlns="http://www.w3.org/2000/svg" viewBox="0 0 884 169.16"><defs><style>.cls-1{fill:#00403d;}.cls-2{fill:#c9d010;}</style></defs><g id="Capa_2" data-name="Capa 2"><g id="Capa_1-2" data-name="Capa 1"><path class="cls-1" d="M220.43,122.49a59.48,59.48,0,0,0,13-1.13,11.9,11.9,0,0,0,7.21-4.5q2.4-3.36,3.27-10.21a209.4,209.4,0,0,0,0-37q-.82-6.83-3.27-10.31a11.79,11.79,0,0,0-7.21-4.6,60.11,60.11,0,0,0-13-1.14q-8.56,0-13.48,2.4a16.08,16.08,0,0,0-7.35,7.36,30.29,30.29,0,0,0-2.55,10.51q-.51,6.24-.51,14.2,0,8.16.51,14.19a31.07,31.07,0,0,0,2.41,10.12,15.11,15.11,0,0,0,7.46,7.65Q211.81,122.49,220.43,122.49Zm-45.59,39.19V36.09H188A7.19,7.19,0,0,1,195.2,43l.3,7h1.43a24.93,24.93,0,0,1,8.41-9.91,30.14,30.14,0,0,1,11.35-4.5,71.79,71.79,0,0,1,12.76-1.11A52,52,0,0,1,246.87,37a23.5,23.5,0,0,1,11.33,8.58q4.29,6,6.33,16.45a137.49,137.49,0,0,1,2,25.94,147.67,147.67,0,0,1-1.93,26.14q-2,10.42-6.13,16.44a23.36,23.36,0,0,1-11.14,8.68,49.07,49.07,0,0,1-17.32,2.66,69.19,69.19,0,0,1-13.48-1.2,31.51,31.51,0,0,1-10.82-4.2A22.89,22.89,0,0,1,198,128h-1.43v40.85H182.14a7,7,0,0,1-2.78-.52A7.06,7.06,0,0,1,177,166.8a7.24,7.24,0,0,1-1.59-2.35A7.1,7.1,0,0,1,174.84,161.68Z"/><path class="cls-1" d="M317.31,141.89q-10.81,0-17.66-2.56a21.38,21.38,0,0,1-10.42-7.65A30.14,30.14,0,0,1,284.42,119a112.36,112.36,0,0,1-1.2-17.77V36.09h14.42a7.2,7.2,0,0,1,7.21,7.21V92.67a141.85,141.85,0,0,0,.72,16.23c.46,4,1.45,7,3,9a10.26,10.26,0,0,0,6.64,3.79,67.84,67.84,0,0,0,11.74.82,34.64,34.64,0,0,0,13.07-2,14.45,14.45,0,0,0,7.21-6.12,25.54,25.54,0,0,0,3-10.23q.62-6.12.61-14.3V36.09h14.65a7.2,7.2,0,0,1,7.21,7.21v97H359.44a7.22,7.22,0,0,1-7.21-6.79l-.42-7.1h-1.43a23.54,23.54,0,0,1-6.42,8.41,28.88,28.88,0,0,1-10.73,5.31A59.73,59.73,0,0,1,317.31,141.89Z"/><path class="cls-1" d="M389.28,133.05v-97H402.4A7.21,7.21,0,0,1,409.61,43l.32,7h1.63a24.55,24.55,0,0,1,6.54-8.48,28.57,28.57,0,0,1,10.62-5.21,59.5,59.5,0,0,1,15.83-1.88q11,0,17.77,2.54a20.9,20.9,0,0,1,10.21,7.67,32.13,32.13,0,0,1,4.81,12.66,104.73,104.73,0,0,1,1.32,17.77v65.21H464.05a7.22,7.22,0,0,1-7.21-7.21V83.67a144.51,144.51,0,0,0-.71-16.25c-.48-4-1.47-7-3-9a10.35,10.35,0,0,0-6.64-3.78,67.88,67.88,0,0,0-11.75-.81,33.88,33.88,0,0,0-13,2A14.42,14.42,0,0,0,414.61,62a26.18,26.18,0,0,0-3.06,10.21,122,122,0,0,0-.72,14.3v53.73H396.49a7.24,7.24,0,0,1-7.21-7.21Z"/><path class="cls-1" d="M538.37,124.32a53.59,53.59,0,0,0,9.3-.72,23,23,0,0,0,7.35-2.4,13,13,0,0,0,5-4.81,29.27,29.27,0,0,0,2.76-8,53.29,53.29,0,0,0,.92-10.62V94.13H533.83a39.73,39.73,0,0,0-10.31,1,7,7,0,0,0-2.94,1.54,6.92,6.92,0,0,0-1.87,2.75,30.53,30.53,0,0,0-1.2,10,24.31,24.31,0,0,0,1.43,9.49c.95,2.12,3,3.55,6,4.29a59.12,59.12,0,0,0,13.41,1.09Zm-9.61,17.57A48.79,48.79,0,0,1,510.89,139a20.86,20.86,0,0,1-10.93-9.5q-3.68-6.63-3.68-18,0-12,2.86-19.1A18.1,18.1,0,0,1,509,82.3q6.95-3.06,19.6-3.07c1.36,0,3.38,0,6,.1s5.72.14,9.19.2l10.42.21q5.21.11,9.49.31v-4.9a59.13,59.13,0,0,0-1-12.46,10.46,10.46,0,0,0-4.18-6.64,20.05,20.05,0,0,0-9.1-2.76q-5.91-.6-15.31-.61-4.49,0-10.52.3t-11.75.72l-1,.07a7.12,7.12,0,0,1-2.93-.38,7.26,7.26,0,0,1-2.52-1.53,7,7,0,0,1-1.7-2.4,7.23,7.23,0,0,1-.6-2.89v-9a153.52,153.52,0,0,1,18.38-2.4q10-.69,20-.71a112.82,112.82,0,0,1,19.51,1.43,36.43,36.43,0,0,1,12.76,4.49,19.67,19.67,0,0,1,7.35,8,38.93,38.93,0,0,1,3.47,11.74,105.91,105.91,0,0,1,1,15.62v64.58H572.3a7.22,7.22,0,0,1-7.21-6.78l-.41-6.7h-1.2a24.34,24.34,0,0,1-9.29,9.9A34,34,0,0,1,541.63,141,95.69,95.69,0,0,1,528.76,141.89Z"/><path class="cls-2" d="M603.21,133.05V116.77h17.3a7.2,7.2,0,0,1,7.21,7.21v16.28h-17.3a7.22,7.22,0,0,1-7.21-7.21Z"/><path class="cls-2" d="M689.56,122.67a59.35,59.35,0,0,0,13-1.13,11.76,11.76,0,0,0,7.21-4.59c1.63-2.32,2.71-5.76,3.27-10.32a209.4,209.4,0,0,0,0-37c-.56-4.56-1.64-8-3.27-10.21a12,12,0,0,0-7.21-4.5,59.34,59.34,0,0,0-13-1.11,36.37,36.37,0,0,0-12.77,1.83,12.84,12.84,0,0,0-7,6.13,27,27,0,0,0-3.37,10.92,142,142,0,0,0-.71,15.43,144.12,144.12,0,0,0,.71,15.41,28.13,28.13,0,0,0,3.17,10.94,14.17,14.17,0,0,0,7.21,6.22,34.47,34.47,0,0,0,12.81,2Zm9,19.22a71.08,71.08,0,0,1-12.77-1.13,30.9,30.9,0,0,1-11.33-4.39,23.85,23.85,0,0,1-8.41-9.8H664.6L664,140.26H651.18a7.24,7.24,0,0,1-7.21-7.21V0h14.42a7.2,7.2,0,0,1,7.21,7.21V48.34h1.2a22.7,22.7,0,0,1,7.86-8.48,33,33,0,0,1,10.93-4.18,69.33,69.33,0,0,1,13.48-1.2,49,49,0,0,1,17.36,2.65,23.39,23.39,0,0,1,11.13,8.68q4.19,6,6.13,16.34a144.68,144.68,0,0,1,1.94,26.05,137.61,137.61,0,0,1-2,26q-2.05,10.33-6.33,16.34a24,24,0,0,1-11.34,8.69A49.83,49.83,0,0,1,698.54,141.89Z"/><path class="cls-2" d="M752.37,133.05v-97h14.42A7.2,7.2,0,0,1,774,43.3v97H759.58a7.22,7.22,0,0,1-7.21-7.21ZM752,15V0h15.46a7.2,7.2,0,0,1,7.21,7.21v15H759.17a7.23,7.23,0,0,1-2.76-.55,7.41,7.41,0,0,1-2.34-1.57,7.17,7.17,0,0,1-1.56-2.33A7.31,7.31,0,0,1,752,15Z"/><path class="cls-2" d="M837.23,123.71a65.45,65.45,0,0,0,14.51-1.2,10.8,10.8,0,0,0,4.12-1.69,11,11,0,0,0,3.09-3.21q2.14-3.6,2.65-10.81c.35-4.81.51-11,.51-18.8s-.17-14-.51-18.69S860.4,61,859,58.59a10.5,10.5,0,0,0-7.21-4.8,72,72,0,0,0-14.51-1.12,70.7,70.7,0,0,0-14.3,1.12,10.5,10.5,0,0,0-7.21,4.8q-2.15,3.67-2.65,10.72T812.55,88q0,11.66.52,18.8t2.65,10.81a11,11,0,0,0,3.09,3.21,10.8,10.8,0,0,0,4.12,1.69A64.73,64.73,0,0,0,837.23,123.71Zm0,18.18a121.86,121.86,0,0,1-21.75-1.63q-8.68-1.63-13.68-5.22a20.67,20.67,0,0,1-7.36-9.69A55.37,55.37,0,0,1,791.38,110q-.72-9.19-.72-22.06,0-12.68.72-21.86a55.23,55.23,0,0,1,3.06-15.31,20.74,20.74,0,0,1,7.36-9.71q5-3.62,13.68-5.11a157.88,157.88,0,0,1,43.71,0q8.68,1.55,13.68,5.11a20.74,20.74,0,0,1,7.36,9.71,55.59,55.59,0,0,1,3.06,15.31Q884,75.3,884,88q0,12.87-.71,22.06a55.73,55.73,0,0,1-3.06,15.32,20.67,20.67,0,0,1-7.36,9.69q-5,3.6-13.68,5.22A123.34,123.34,0,0,1,837.23,141.89Z"/><path class="cls-1" d="M74.75,114.88a24,24,0,0,1,0,13.7,44.16,44.16,0,0,1-7.35,14.34,49.56,49.56,0,0,1-11.81,11.8,22.16,22.16,0,0,1-13.09,4q-8.88,0-19.36-7.76a38,38,0,0,1-7.67-7.47,25.27,25.27,0,0,1-4.35-8.82,26.41,26.41,0,0,1-.24-13.36q1.59-6.94,7.43-14.8A48.09,48.09,0,0,1,30,94.74a26.18,26.18,0,0,1,11.53-4.27,23,23,0,0,1,10.39,1.75,48.66,48.66,0,0,1,10.28,6q10,7.41,12.53,16.6Zm-20-32.71a29.88,29.88,0,0,0-13.6-2.25,34,34,0,0,0-15.1,5.56q-7.58,4.83-15.38,15.34Q3.07,111.1,1,120.18a34.49,34.49,0,0,0,.31,17.5A33.42,33.42,0,0,0,7,149.24,49.45,49.45,0,0,0,17,159q13.71,10.14,25.35,10.15A29.11,29.11,0,0,0,59.53,164,64.81,64.81,0,0,0,75,148.49a57.6,57.6,0,0,0,9.62-18.78,31.45,31.45,0,0,0,0-17.93Q81.22,99.71,68.21,90A64.69,64.69,0,0,0,54.77,82.17Z"/><path class="cls-2" d="M54,121.24A8.42,8.42,0,0,1,54,126a15.52,15.52,0,0,1-2.55,5,17.29,17.29,0,0,1-4.12,4.11,7.65,7.65,0,0,1-4.51,1.38A11.71,11.71,0,0,1,36,133.8a13.42,13.42,0,0,1-2.66-2.61,9,9,0,0,1-1.52-3.07,9.23,9.23,0,0,1-.08-4.64,14.32,14.32,0,0,1,2.58-5.16,16.14,16.14,0,0,1,4.09-4.07,9,9,0,0,1,4-1.48,8,8,0,0,1,3.61.6,17.36,17.36,0,0,1,3.58,2.09A11,11,0,0,1,54,121.24ZM42,102.69a16.87,16.87,0,0,0-7.43,2.73A30,30,0,0,0,27.06,113a26.08,26.08,0,0,0-4.77,9.51,17,17,0,0,0,.14,8.6,16.59,16.59,0,0,0,2.81,5.64,24.59,24.59,0,0,0,4.92,4.8q6.77,5,12.41,5A14.31,14.31,0,0,0,51,143.94a32.17,32.17,0,0,0,7.59-7.59,28.25,28.25,0,0,0,4.72-9.23,15.36,15.36,0,0,0,0-8.81c-1.13-4-3.77-7.52-8-10.69a31.09,31.09,0,0,0-6.62-3.85A14.54,14.54,0,0,0,42,102.69Z"/><path class="cls-1" d="M67.31,29.67a20.17,20.17,0,0,1,0,11.57,37.42,37.42,0,0,1-6.23,12.1,41.81,41.81,0,0,1-10,9.94A18.85,18.85,0,0,1,40,66.66q-7.48,0-16.33-6.61a31.93,31.93,0,0,1-6.45-6.32,21.8,21.8,0,0,1-3.67-7.47A22.45,22.45,0,0,1,13.38,35a34.51,34.51,0,0,1,6.3-12.47,39.71,39.71,0,0,1,10-9.87A22.19,22.19,0,0,1,39.4,9.07a19.32,19.32,0,0,1,8.76,1.5,41.71,41.71,0,0,1,8.68,5.08q8.35,6.2,10.47,14ZM50.51,2a25.44,25.44,0,0,0-11.46-2A28.72,28.72,0,0,0,26.27,4.72q-6.39,4.07-13,12.91Q6.75,26.32,5,34a29.26,29.26,0,0,0,.22,14.78A28,28,0,0,0,10,58.54a41.5,41.5,0,0,0,8.46,8.28Q30,75.44,39.86,75.48a24.56,24.56,0,0,0,14.51-4.35,54.9,54.9,0,0,0,13.1-13,48.92,48.92,0,0,0,8.17-15.84,26.49,26.49,0,0,0,.07-15.15Q72.94,16.88,61.91,8.65A54.15,54.15,0,0,0,50.51,2Z"/><path class="cls-2" d="M49.72,35a7.09,7.09,0,0,1,0,4,13,13,0,0,1-2.17,4.21,14.66,14.66,0,0,1-3.48,3.46,6.63,6.63,0,0,1-3.86,1.13,9.93,9.93,0,0,1-5.64-2.26,11.75,11.75,0,0,1-2.26-2.25A7.5,7.5,0,0,1,31,40.73,7.89,7.89,0,0,1,31,36.81a12,12,0,0,1,2.26-4.35,13.89,13.89,0,0,1,3.46-3.38,7.82,7.82,0,0,1,3.39-1.24,6.74,6.74,0,0,1,3,.52,14.06,14.06,0,0,1,3,1.77A9.21,9.21,0,0,1,49.72,35Zm-10-15.71a14.13,14.13,0,0,0-6.27,2.26A25.25,25.25,0,0,0,27,27.9a22.23,22.23,0,0,0-4.05,8,14.4,14.4,0,0,0,.11,7.26A13.56,13.56,0,0,0,25.42,48a20.31,20.31,0,0,0,4.15,4.08q5.64,4.23,10.5,4.25a12.14,12.14,0,0,0,7.13-2.14,26.91,26.91,0,0,0,6.43-6.39,24.31,24.31,0,0,0,4-7.78,13.12,13.12,0,0,0,0-7.45q-1.36-5-6.77-9a26.86,26.86,0,0,0-5.57-3.27A12.44,12.44,0,0,0,39.69,19.3Z"/><path class="cls-1" d="M107.68,96.37a17.24,17.24,0,0,1-9.86,0,31.94,31.94,0,0,1-10.27-5.25,35.88,35.88,0,0,1-8.49-8.5,16.09,16.09,0,0,1-2.87-9.43q0-6.39,5.64-13.93a27.23,27.23,0,0,1,5.37-5.51,18.44,18.44,0,0,1,6.35-3.15,19.23,19.23,0,0,1,9.62-.17,29.47,29.47,0,0,1,10.65,5.35,33.48,33.48,0,0,1,8.42,8.45,18.8,18.8,0,0,1,3.07,8.3A16.53,16.53,0,0,1,124.06,80a35.58,35.58,0,0,1-4.31,7.4Q114.34,94.51,107.68,96.37ZM131.2,82a21.57,21.57,0,0,0,1.64-9.78,24.74,24.74,0,0,0-4-10.87,44,44,0,0,0-11-11.07,38.72,38.72,0,0,0-13.94-7,24.8,24.8,0,0,0-12.6.23,23.76,23.76,0,0,0-8.31,4.1,35.42,35.42,0,0,0-7,7.22q-7.32,9.88-7.32,18.25a21,21,0,0,0,3.74,12.41A47.34,47.34,0,0,0,83.44,96.6,42,42,0,0,0,97,103.51a22.66,22.66,0,0,0,12.9,0q8.7-2.4,15.69-11.81A45.75,45.75,0,0,0,131.2,82Z"/><path class="cls-2" d="M103.08,81.39a6.07,6.07,0,0,1-3.38,0,11.3,11.3,0,0,1-3.59-1.83,12.75,12.75,0,0,1-3-3,5.57,5.57,0,0,1-1-3.28,8.32,8.32,0,0,1,1.94-4.85A9.21,9.21,0,0,1,96,66.55a6.41,6.41,0,0,1,2.26-1.13,6.67,6.67,0,0,1,3.38,0,10.23,10.23,0,0,1,3.7,1.85,11.77,11.77,0,0,1,2.94,3,6.63,6.63,0,0,1,1.07,2.88,6,6,0,0,1-.44,2.61,12.7,12.7,0,0,1-1.5,2.57A7.9,7.9,0,0,1,103.08,81.39Zm13.36-8.58a12.14,12.14,0,0,0-2-5.33A21.89,21.89,0,0,0,109.05,62a19.12,19.12,0,0,0-6.85-3.39,12.21,12.21,0,0,0-6.18.11,11.81,11.81,0,0,0-4.08,2,16.93,16.93,0,0,0-3.47,3.55q-3.59,4.83-3.58,9a10.22,10.22,0,0,0,1.84,6.06,22.69,22.69,0,0,0,5.46,5.47,20.48,20.48,0,0,0,6.64,3.39,11.18,11.18,0,0,0,6.33,0,14.63,14.63,0,0,0,7.7-5.8,22.41,22.41,0,0,0,2.77-4.82A10.55,10.55,0,0,0,116.44,72.81Z"/></g></g></svg>