<svg xmlns="http://www.w3.org/2000/svg" xmlns:xlink="http://www.w3.org/1999/xlink" viewBox="0 0 654.04 531.61"><defs><style>.cls-1{fill:#c9d00e;}.cls-1,.cls-3,.cls-4{opacity:0.5;}.cls-2{opacity:0.2;}.cls-3{fill:#00403d;}.cls-4{fill:#e6e6e6;}</style></defs><g id="Capa_2" data-name="Capa 2"><g id="Capa_1-2" data-name="Capa 1"><path class="cls-1" d="M175.45,51.65a10.42,10.42,0,0,0-3.69-3.28,18.67,18.67,0,0,0-6.37-1.94,16.64,16.64,0,0,0-6.65.17,10.64,10.64,0,0,0-4.69,2.62,10.19,10.19,0,0,0-2.3,3.22,15,15,0,0,0-1.19,4.12c-.52,3.46-.21,6.24.91,8.33a9,9,0,0,0,3.89,3.89,20.08,20.08,0,0,0,6.42,2,17.82,17.82,0,0,0,6.47-.12A9.58,9.58,0,0,0,173.11,68a12.63,12.63,0,0,0,3.52-7.58,19.61,19.61,0,0,0,.18-4.78A9.25,9.25,0,0,0,175.45,51.65Zm-6.71,12a5.21,5.21,0,0,1-2.63,1.4,9.26,9.26,0,0,1-3.5.06,10.73,10.73,0,0,1-3.48-1.05A4.84,4.84,0,0,1,157,62a7.29,7.29,0,0,1-.5-4.51,8.05,8.05,0,0,1,.65-2.23,5.51,5.51,0,0,1,1.24-1.75A5.83,5.83,0,0,1,161,52.1a8.86,8.86,0,0,1,3.6-.09A10.05,10.05,0,0,1,168,53.06a5.7,5.7,0,0,1,2,1.77,5,5,0,0,1,.73,2.17,10.89,10.89,0,0,1-.1,2.58A6.83,6.83,0,0,1,168.74,63.69Z"/><g class="cls-2"><path class="cls-3" d="M147.3,357.62a50.63,50.63,0,0,0,3.86-23q-1.23-12.74-9.44-25.58t-26-26Q98.34,270.08,83,266.55a58.75,58.75,0,0,0-29.63.52,56.57,56.57,0,0,0-19.56,9.67,83.36,83.36,0,0,0-16.54,17Q0,316.95,0,336.64a49.35,49.35,0,0,0,8.81,29.05q9.11,13.5,26.16,26.16,16,11.85,31.8,16.29a53.25,53.25,0,0,0,30.36,0q20.48-5.64,36.9-27.76A108.17,108.17,0,0,0,147.3,357.62ZM92,391.45a40.58,40.58,0,0,1-23.19,0A75.14,75.14,0,0,1,44.52,379q-13-9.66-20-20a37.62,37.62,0,0,1-6.73-22.19q0-15,13.14-32.77a63.7,63.7,0,0,1,12.64-13,43.15,43.15,0,0,1,14.94-7.38,44.72,44.72,0,0,1,22.63-.4q11.73,2.71,25,12.57,13.58,10.06,19.83,19.87a44.23,44.23,0,0,1,7.21,19.53,38.77,38.77,0,0,1-2.94,17.58,83.28,83.28,0,0,1-10.13,17.41Q107.63,387.15,92,391.45Z"/><path class="cls-3" d="M112.58,336A28.36,28.36,0,0,0,108,323.48q-4-6.28-12.75-12.77-8.55-6.34-16.1-8.09a28.85,28.85,0,0,0-14.55.26,27.7,27.7,0,0,0-9.61,4.75A40.56,40.56,0,0,0,46.82,316q-8.46,11.4-8.46,21.07a24.25,24.25,0,0,0,4.33,14.27,54,54,0,0,0,12.85,12.84,48.12,48.12,0,0,0,15.61,8,26.09,26.09,0,0,0,14.91,0q10.05-2.78,18.12-13.63a52.94,52.94,0,0,0,6.51-11.2A24.75,24.75,0,0,0,112.58,336ZM81.15,356.23a14.08,14.08,0,0,1-8.06,0,26.18,26.18,0,0,1-8.46-4.33,29.45,29.45,0,0,1-6.95-6.95,13.11,13.11,0,0,1-2.34-7.72q0-5.24,4.58-11.4a22.24,22.24,0,0,1,4.39-4.52,15.15,15.15,0,0,1,5.2-2.57,15.66,15.66,0,0,1,7.88-.14A24.15,24.15,0,0,1,86.1,323a27.36,27.36,0,0,1,6.9,6.91,15.45,15.45,0,0,1,2.51,6.8,13.42,13.42,0,0,1-1,6.11A28.52,28.52,0,0,1,91,348.85Q86.6,354.73,81.15,356.23Z"/></g><path class="cls-1" d="M138.72,71.4a10.45,10.45,0,0,0-3.7-3.28,18.6,18.6,0,0,0-6.37-1.94,16.29,16.29,0,0,0-6.65.17A10.59,10.59,0,0,0,117.31,69a10.19,10.19,0,0,0-2.3,3.21,15,15,0,0,0-1.19,4.13c-.51,3.46-.21,6.23.92,8.33a8.92,8.92,0,0,0,3.89,3.89,20,20,0,0,0,6.41,2,17.87,17.87,0,0,0,6.48-.12,9.58,9.58,0,0,0,4.85-2.59,12.64,12.64,0,0,0,3.53-7.59,20,20,0,0,0,.17-4.77A9.11,9.11,0,0,0,138.72,71.4Zm-6.72,12a5.21,5.21,0,0,1-2.63,1.4,9.69,9.69,0,0,1-3.5.06,10.67,10.67,0,0,1-3.47-1.05,4.89,4.89,0,0,1-2.11-2.11,7.18,7.18,0,0,1-.49-4.5,8.11,8.11,0,0,1,.64-2.24,5.6,5.6,0,0,1,1.25-1.74,5.72,5.72,0,0,1,2.54-1.41,8.79,8.79,0,0,1,3.59-.1,10,10,0,0,1,3.45,1,5.63,5.63,0,0,1,2,1.78,5,5,0,0,1,.73,2.17,10.37,10.37,0,0,1-.09,2.58A6.89,6.89,0,0,1,132,83.44Z"/><path class="cls-1" d="M608.55,162.35a40,40,0,0,0-18.15-3q-10,1-20.18,7.44T549.7,187.24q-10.2,13.72-13,25.86a46.19,46.19,0,0,0,.41,23.38,44.63,44.63,0,0,0,7.62,15.43,66,66,0,0,0,13.4,13q18.32,13.6,33.85,13.59a38.83,38.83,0,0,0,22.91-7q10.67-7.18,20.64-20.63,9.35-12.6,12.85-25.09a41.86,41.86,0,0,0,0-23.94q-4.44-16.15-21.89-29.11A85.63,85.63,0,0,0,608.55,162.35ZM635.24,206a32.07,32.07,0,0,1,0,18.29,59,59,0,0,1-9.81,19.16q-7.63,10.28-15.76,15.76a29.75,29.75,0,0,1-17.5,5.31q-11.86,0-25.85-10.37a50.37,50.37,0,0,1-10.24-10,34.08,34.08,0,0,1-5.82-11.78,35.31,35.31,0,0,1-.31-17.85q2.13-9.26,9.91-19.75,7.95-10.71,15.68-15.65a34.83,34.83,0,0,1,15.4-5.68,30.45,30.45,0,0,1,13.87,2.32,65.38,65.38,0,0,1,13.73,8Q631.84,193.64,635.24,206Z"/><path class="cls-4" d="M624.7,149.46a22.44,22.44,0,0,0-9.91,3.66,40.08,40.08,0,0,0-10.08,10.06,34.84,34.84,0,0,0-6.37,12.7,22.62,22.62,0,0,0,.2,11.48,21.71,21.71,0,0,0,3.74,7.57,32.38,32.38,0,0,0,6.58,6.41q9,6.67,16.62,6.67a19.21,19.21,0,0,0,11.26-3.41,43,43,0,0,0,10.13-10.14,38.06,38.06,0,0,0,6.31-12.31,20.55,20.55,0,0,0,0-11.76q-2.18-7.94-10.75-14.3a42.12,42.12,0,0,0-8.83-5.13A19.6,19.6,0,0,0,624.7,149.46Zm15.92,24.8a11.19,11.19,0,0,1,0,6.36,20.82,20.82,0,0,1-3.41,6.67,23.1,23.1,0,0,1-5.49,5.48,10.32,10.32,0,0,1-6.09,1.85q-4.12,0-9-3.61a17.55,17.55,0,0,1-3.56-3.47,11.93,11.93,0,0,1-2-4.1,12.3,12.3,0,0,1-.11-6.21,19.08,19.08,0,0,1,3.45-6.87,21.54,21.54,0,0,1,5.46-5.45,12.28,12.28,0,0,1,5.36-2,10.56,10.56,0,0,1,4.82.81,22.93,22.93,0,0,1,4.78,2.78Q639.43,170,640.62,174.26Z"/><image width="750" height="750" transform="translate(61.21) scale(0.71)" xlink:href="../../../aapresid_flyer_lentes/Links/charging_d.png"/></g></g></svg>